<svg width="20" height="20" viewBox="0 0 20 20" fill="none" xmlns="http://www.w3.org/2000/svg">
<path d="M10 19C14.9706 19 19 14.9706 19 10C19 5.02944 14.9706 1 10 1C5.02944 1 1 5.02944 1 10C1 14.9706 5.02944 19 10 19Z" stroke="white" strokeWidth="2" strokeLinecap="round" stroke-linejoin="round"/>
<path d="M10 19C12.2091 19 14 14.9706 14 10C14 5.02944 12.2091 1 10 1C7.79086 1 6 5.02944 6 10C6 14.9706 7.79086 19 10 19Z" stroke="white" strokeWidth="2" strokeLinecap="round" stroke-linejoin="round"/>
<path d="M1 10C1 12.21 5.03 14 10 14C14.97 14 19 12.21 19 10C19 7.79 14.97 6 10 6C5.03 6 1 7.79 1 10Z" stroke="white" strokeWidth="2" strokeLinecap="round" stroke-linejoin="round"/>
</svg>
