<svg width="28" height="34" viewBox="0 0 28 34" fill="none" xmlns="http://www.w3.org/2000/svg">
<path d="M11.9167 28.6673C12.9723 28.6673 13.8612 28.3062 14.5834 27.584C15.3056 26.8618 15.6667 25.9729 15.6667 24.9173V18.6673H20.6667V15.334H14.0001V21.7923C13.6945 21.5701 13.3684 21.4101 13.0217 21.3123C12.674 21.2157 12.3056 21.1673 11.9167 21.1673C10.8612 21.1673 9.9723 21.5284 9.25008 22.2507C8.52786 22.9729 8.16675 23.8618 8.16675 24.9173C8.16675 25.9729 8.52786 26.8618 9.25008 27.584C9.9723 28.3062 10.8612 28.6673 11.9167 28.6673ZM4.00008 33.6673C3.08341 33.6673 2.29897 33.3412 1.64675 32.689C0.993414 32.0357 0.666748 31.2507 0.666748 30.334V3.66732C0.666748 2.75065 0.993414 1.96565 1.64675 1.31232C2.29897 0.660095 3.08341 0.333984 4.00008 0.333984H17.3334L27.3334 10.334V30.334C27.3334 31.2507 27.0073 32.0357 26.3551 32.689C25.7017 33.3412 24.9167 33.6673 24.0001 33.6673H4.00008ZM15.6667 12.0007H24.0001L15.6667 3.66732V12.0007Z" fill="white"/>
</svg>
