<svg width="25" height="25" viewBox="0 0 25 25" fill="none" xmlns="http://www.w3.org/2000/svg">
<circle cx="12.5" cy="12.5" r="12" fill="white" stroke="#9C9C9C"/>
<path d="M11.5469 18.1875L16.8125 12.9375C16.875 12.875 16.9192 12.8073 16.945 12.7344C16.9713 12.6615 16.9844 12.5833 16.9844 12.5C16.9844 12.4167 16.9713 12.3385 16.945 12.2656C16.9192 12.1927 16.875 12.125 16.8125 12.0625L11.5469 6.79687C11.401 6.65104 11.2188 6.57812 11 6.57812C10.7812 6.57812 10.5938 6.65625 10.4375 6.8125C10.2813 6.96875 10.2031 7.15104 10.2031 7.35938C10.2031 7.56771 10.2813 7.75 10.4375 7.90625L15.0312 12.5L10.4375 17.0938C10.2917 17.2396 10.2188 17.4192 10.2188 17.6325C10.2188 17.8463 10.2969 18.0312 10.4531 18.1875C10.6094 18.3438 10.7917 18.4219 11 18.4219C11.2083 18.4219 11.3906 18.3438 11.5469 18.1875Z" fill="#9C9C9C"/>
</svg>
