<svg width="25" height="25" viewBox="0 0 25 25" fill="none" xmlns="http://www.w3.org/2000/svg">
<circle cx="12.5" cy="12.5" r="12" fill="white" stroke="#9C9C9C"/>
<path d="M13.4531 18.1875L8.1875 12.9375C8.125 12.875 8.08083 12.8073 8.055 12.7344C8.02875 12.6615 8.01562 12.5833 8.01562 12.5C8.01562 12.4167 8.02875 12.3385 8.055 12.2656C8.08083 12.1927 8.125 12.125 8.1875 12.0625L13.4531 6.79687C13.599 6.65104 13.7812 6.57812 14 6.57812C14.2187 6.57812 14.4062 6.65625 14.5625 6.8125C14.7187 6.96875 14.7969 7.15104 14.7969 7.35938C14.7969 7.56771 14.7187 7.75 14.5625 7.90625L9.96875 12.5L14.5625 17.0938C14.7083 17.2396 14.7812 17.4192 14.7812 17.6325C14.7812 17.8463 14.7031 18.0313 14.5469 18.1875C14.3906 18.3438 14.2083 18.4219 14 18.4219C13.7917 18.4219 13.6094 18.3438 13.4531 18.1875Z" fill="#9C9C9C"/>
</svg>
