<svg width="25" height="25" viewBox="0 0 25 25" fill="none" xmlns="http://www.w3.org/2000/svg">
<path fill-rule="evenodd" clip-rule="evenodd" d="M10.1562 2.73438C10.1562 2.63077 10.1974 2.53142 10.2707 2.45816C10.3439 2.38491 10.4433 2.34375 10.5469 2.34375H14.4531C14.5567 2.34375 14.6561 2.38491 14.7293 2.45816C14.8026 2.53142 14.8438 2.63077 14.8438 2.73438V4.6875H10.1562V2.73438ZM17.1875 2.73438V4.6875H20.7031C21.0139 4.6875 21.312 4.81097 21.5318 5.03073C21.7515 5.2505 21.875 5.54857 21.875 5.85938C21.875 6.17018 21.7515 6.46825 21.5318 6.68802C21.312 6.90778 21.0139 7.03125 20.7031 7.03125H4.29688C3.98607 7.03125 3.688 6.90778 3.46823 6.68802C3.24846 6.46825 3.125 6.17018 3.125 5.85938C3.125 5.54857 3.24846 5.2505 3.46823 5.03073C3.688 4.81097 3.98607 4.6875 4.29688 4.6875H7.8125V2.73438C7.8125 1.225 9.0375 0 10.5469 0H14.4531C15.9625 0 17.1875 1.225 17.1875 2.73438ZM7.025 10.4297C7.01329 10.2737 6.97049 10.1217 6.89912 9.98257C6.82774 9.84342 6.72924 9.71997 6.60941 9.61948C6.48958 9.519 6.35086 9.44351 6.2014 9.39747C6.05195 9.35144 5.89479 9.33578 5.73919 9.35142C5.58359 9.36706 5.43269 9.41369 5.29539 9.48856C5.1581 9.56343 5.03717 9.66502 4.93974 9.78735C4.84232 9.90967 4.77036 10.0503 4.72811 10.2008C4.68586 10.3514 4.67418 10.5089 4.69375 10.6641L5.725 20.9766C5.79278 21.651 6.10862 22.2762 6.61126 22.7309C7.1139 23.1856 7.76751 23.4374 8.44531 23.4375H16.5547C17.9609 23.4375 19.1359 22.3734 19.275 20.975L20.3062 10.6625C20.3281 10.3581 20.2304 10.0572 20.0339 9.82376C19.8373 9.5903 19.5575 9.44272 19.2538 9.4124C18.9502 9.38208 18.6467 9.4714 18.4079 9.66137C18.169 9.85135 18.0137 10.127 17.975 10.4297L16.9437 20.7422C16.9341 20.8386 16.8889 20.928 16.817 20.993C16.7451 21.0579 16.6516 21.0938 16.5547 21.0938H8.44531C8.34841 21.0938 8.25492 21.0579 8.18302 20.993C8.11112 20.928 8.06594 20.8386 8.05625 20.7422L7.025 10.4297Z" fill="#E83A39"/>
</svg>
