<svg width="16" height="19" viewBox="0 0 16 19" fill="none" xmlns="http://www.w3.org/2000/svg">
<path fillRule="evenodd" clipRule="evenodd" d="M6.125 2.1875C6.125 2.10462 6.15792 2.02513 6.21653 1.96653C6.27513 1.90792 6.35462 1.875 6.4375 1.875H9.5625C9.64538 1.875 9.72487 1.90792 9.78347 1.96653C9.84208 2.02513 9.875 2.10462 9.875 2.1875V3.75H6.125V2.1875ZM11.75 2.1875V3.75H14.5625C14.8111 3.75 15.0496 3.84877 15.2254 4.02459C15.4012 4.2004 15.5 4.43886 15.5 4.6875C15.5 4.93614 15.4012 5.1746 15.2254 5.35041C15.0496 5.52623 14.8111 5.625 14.5625 5.625H1.4375C1.18886 5.625 0.950403 5.52623 0.774587 5.35041C0.598772 5.1746 0.5 4.93614 0.5 4.6875C0.5 4.43886 0.598772 4.2004 0.774587 4.02459C0.950403 3.84877 1.18886 3.75 1.4375 3.75H4.25V2.1875C4.25 0.98 5.23 0 6.4375 0H9.5625C10.77 0 11.75 0.98 11.75 2.1875ZM3.62 8.34375C3.61063 8.21899 3.57639 8.09737 3.51929 7.98606C3.46219 7.87474 3.38339 7.77598 3.28753 7.69559C3.19167 7.6152 3.08068 7.55481 2.96112 7.51798C2.84156 7.48115 2.71583 7.46862 2.59135 7.48114C2.46687 7.49365 2.34615 7.53095 2.23632 7.59085C2.12648 7.65074 2.02974 7.73201 1.95179 7.82988C1.87385 7.92774 1.81629 8.04021 1.78249 8.16067C1.74869 8.28112 1.73934 8.40713 1.755 8.53125L2.58 16.7812C2.63422 17.3208 2.8869 17.8209 3.28901 18.1847C3.69112 18.5485 4.21401 18.7499 4.75625 18.75H11.2438C12.3688 18.75 13.3088 17.8988 13.42 16.78L14.245 8.53C14.2625 8.2865 14.1843 8.04577 14.0271 7.85901C13.8699 7.67224 13.646 7.55418 13.4031 7.52992C13.1601 7.50566 12.9173 7.57712 12.7263 7.7291C12.5352 7.88108 12.411 8.10159 12.38 8.34375L11.555 16.5938C11.5472 16.6709 11.5111 16.7424 11.4536 16.7944C11.3961 16.8463 11.3213 16.8751 11.2438 16.875H4.75625C4.67873 16.8751 4.60394 16.8463 4.54642 16.7944C4.4889 16.7424 4.45275 16.6709 4.445 16.5938L3.62 8.34375Z" fill="#242424"/>
</svg>
