<svg width="13" height="7" viewBox="0 0 13 7" fill="none" xmlns="http://www.w3.org/2000/svg">
<path d="M12.1875 1.54688L6.9375 6.8125C6.875 6.875 6.80729 6.91917 6.73438 6.945C6.66146 6.97125 6.58333 6.98438 6.5 6.98438C6.41667 6.98438 6.33854 6.97125 6.26563 6.945C6.19271 6.91917 6.125 6.875 6.0625 6.8125L0.796875 1.54688C0.651042 1.40104 0.578125 1.21875 0.578125 1C0.578125 0.78125 0.65625 0.59375 0.8125 0.4375C0.96875 0.28125 1.15104 0.203125 1.35938 0.203125C1.56771 0.203125 1.75 0.28125 1.90625 0.4375L6.5 5.03125L11.0938 0.437501C11.2396 0.291667 11.4192 0.21875 11.6325 0.21875C11.8463 0.21875 12.0313 0.296875 12.1875 0.453125C12.3438 0.609375 12.4219 0.791667 12.4219 1C12.4219 1.20833 12.3438 1.39063 12.1875 1.54688Z" fill="#242424"/>
</svg>
