<svg width="16" height="9" viewBox="0 0 16 9" fill="none" xmlns="http://www.w3.org/2000/svg">
<path d="M14.8248 1.65627L8.5248 7.97502C8.4498 8.05002 8.36856 8.10302 8.28105 8.13402C8.19355 8.16552 8.0998 8.18127 7.9998 8.18127C7.89981 8.18127 7.80606 8.16552 7.71855 8.13402C7.63105 8.10302 7.5498 8.05002 7.4748 7.97502L1.15605 1.65627C0.981054 1.48127 0.893554 1.26252 0.893554 1.00002C0.893554 0.737525 0.987304 0.512525 1.1748 0.325025C1.3623 0.137525 1.58105 0.0437746 1.83105 0.0437746C2.08105 0.0437746 2.2998 0.137525 2.4873 0.325025L7.9998 5.83752L13.5123 0.325024C13.6873 0.150024 13.9028 0.0625242 14.1588 0.0625242C14.4153 0.0625242 14.6373 0.156274 14.8248 0.343774C15.0123 0.531274 15.1061 0.750024 15.1061 1.00002C15.1061 1.25002 15.0123 1.46877 14.8248 1.65627Z" fill="#C7C7C7"/>
</svg>
