<svg width="24" height="24" viewBox="0 0 24 24" fill="none" xmlns="http://www.w3.org/2000/svg">
<path d="M3.25 23.25C2.5625 23.25 1.97375 23.0054 1.48375 22.5163C0.994583 22.0263 0.75 21.4375 0.75 20.75V3.25C0.75 2.5625 0.994583 1.97375 1.48375 1.48375C1.97375 0.994583 2.5625 0.75 3.25 0.75H20.75C21.4375 0.75 22.0263 0.994583 22.5163 1.48375C23.0054 1.97375 23.25 2.5625 23.25 3.25V20.75C23.25 21.4375 23.0054 22.0263 22.5163 22.5163C22.0263 23.0054 21.4375 23.25 20.75 23.25H3.25ZM4.5 18.25H19.5L14.8125 12L11.0625 17L8.25 13.25L4.5 18.25Z" fill="white"/>
</svg>
