<svg width="157" height="119" viewBox="0 0 157 119" fill="none" xmlns="http://www.w3.org/2000/svg">
<g clip-path="url(#clip0_184_1310)">
<path d="M84.7554 59.6011C84.7554 49.8234 83.7987 40.5257 82.474 32.3144C80.3643 32.2387 78.6716 30.4701 78.6716 28.2973C78.6716 26.6297 79.6529 25.1896 81.0512 24.5832C78.0829 9.85352 74.3296 0.126343 74.3296 0.126343C74.3296 0.126343 79.0396 9.22188 82.7193 24.2548C84.829 24.3053 86.5216 26.0992 86.5216 28.272C86.5216 29.8384 85.6385 31.2028 84.3629 31.8597C85.8838 39.9193 86.9632 49.2423 86.9632 59.4747C86.9632 94.4926 74.2069 118.975 74.2069 118.975C74.2069 118.975 84.7554 92.3703 84.7554 59.6011ZM4.3174 65.0837L3.16443 71.2484H0.122559L5.81381 40.652H10.5974L16.2887 71.2484H12.9769L11.824 65.0837H4.3174ZM4.73443 62.1529H11.3579L7.99709 44.4924L4.73443 62.1529ZM35.6683 40.652C38.0233 40.652 39.716 41.2584 40.7463 42.4459C41.7766 43.6333 42.2918 45.3767 42.2918 47.6505V50.1518C42.2918 51.8446 41.9974 53.2089 41.4087 54.2701C40.8199 55.3312 39.8877 56.0386 38.6121 56.4429C39.9613 56.8471 40.9426 57.6051 41.5068 58.6915C42.071 59.7779 42.3654 61.1675 42.3654 62.8098V67.5849C42.3654 68.2671 42.3899 68.8987 42.439 69.5304C42.488 70.162 42.6597 70.7431 42.9541 71.2484H39.5933C39.3971 70.8189 39.2499 70.3389 39.1763 69.8335C39.1027 69.3282 39.0537 68.5703 39.0537 67.5344V62.734C39.0537 61.0159 38.6857 59.8285 37.9252 59.1716C37.1647 58.5147 36.1099 58.1862 34.7116 58.1862H32.3812V71.2484H29.0694V40.652H35.6683ZM34.8343 55.0786C36.159 55.0786 37.1893 54.8006 37.9252 54.2195C38.6612 53.6637 39.0291 52.5268 39.0291 50.8845V47.9537C39.0291 46.5641 38.7593 45.503 38.2441 44.7956C37.729 44.0881 36.8458 43.7344 35.5947 43.7344H32.3812V55.0786H34.8343ZM58.5069 40.652L63.3396 67.2817L68.1232 40.652H71.1896L65.621 71.2484H60.7393L55.1462 40.652H58.5069ZM113.383 71.2484H99.8912V68.1913L110.072 43.7597H100.357V40.652H113.481V43.7091L103.252 68.1408H113.383V71.2484ZM129.966 40.652V71.2484H126.655V40.652H129.966ZM143.311 48.0295C143.311 45.6798 143.876 43.7849 144.98 42.4206C146.108 41.031 147.801 40.3488 150.082 40.3488C152.363 40.3488 154.081 41.031 155.209 42.4206C156.338 43.8102 156.902 45.6798 156.902 48.0295V63.8457C156.902 66.1701 156.338 68.0397 155.209 69.4293C154.081 70.8189 152.363 71.5263 150.082 71.5263C147.801 71.5263 146.083 70.8189 144.98 69.4293C143.851 68.0397 143.311 66.1701 143.311 63.8457V48.0295ZM146.574 64.0225C146.574 65.4121 146.868 66.4985 147.433 67.2817C148.021 68.065 148.905 68.444 150.082 68.444C151.309 68.444 152.192 68.065 152.756 67.2817C153.32 66.4985 153.615 65.4121 153.615 64.0225V47.8527C153.615 46.4631 153.32 45.3767 152.756 44.5934C152.192 43.8102 151.309 43.4312 150.082 43.4312C148.905 43.4312 147.997 43.8102 147.433 44.5934C146.844 45.3767 146.574 46.4631 146.574 47.8527V64.0225Z" fill="#04CA6B"/>
</g>
<defs>
<clipPath id="clip0_184_1310">
<rect width="157" height="119" fill="white"/>
</clipPath>
</defs>
</svg>
