<svg width="40" height="40" viewBox="0 0 40 40" fill="none" xmlns="http://www.w3.org/2000/svg">
<path d="M8.42183 5.40631C8.19599 5.17004 7.88661 5.03163 7.55996 5.02072C7.2333 5.00981 6.91537 5.12726 6.67427 5.34793C6.43318 5.56859 6.2881 5.87491 6.27012 6.20125C6.25213 6.52759 6.36268 6.84799 6.57807 7.09381L9.57808 10.3907C3.9062 13.8751 1.4687 19.2501 1.35932 19.5001C1.2901 19.6604 1.25439 19.8332 1.25439 20.0079C1.25439 20.1825 1.2901 20.3553 1.35932 20.5157C1.4062 20.6251 2.73432 23.5626 5.67182 26.5157C9.5937 30.4219 14.5468 32.5001 20 32.5001C22.8015 32.5112 25.5743 31.9364 28.1406 30.8126L31.5781 34.5938C31.6952 34.7218 31.8376 34.824 31.9963 34.8939C32.155 34.9639 32.3265 35 32.5 35.0001C32.8118 34.997 33.1118 34.8803 33.3437 34.6719C33.4666 34.5623 33.5663 34.4291 33.6369 34.2803C33.7075 34.1315 33.7476 33.9701 33.7549 33.8056C33.7622 33.6411 33.7365 33.4767 33.6793 33.3223C33.6221 33.1678 33.5345 33.0264 33.4218 32.9063L8.42183 5.40631ZM15.8125 17.2657L22.3281 24.4219C21.6114 24.8031 20.8117 25.0017 20 25.0001C19.0988 25.0003 18.2143 24.757 17.4401 24.2959C16.6659 23.8348 16.0306 23.1731 15.6016 22.3806C15.1726 21.5882 14.9656 20.6945 15.0028 19.7941C15.0399 18.8937 15.3196 18.0201 15.8125 17.2657ZM20 30.0001C15.1875 30.0001 10.9843 28.2501 7.51558 24.7969C6.07851 23.3882 4.86174 21.7711 3.9062 20.0001C4.64058 18.6251 6.99995 14.7657 11.2968 12.2813L14.1093 15.3751C13.0252 16.7693 12.4679 18.5013 12.5355 20.2661C12.6032 22.0309 13.2914 23.7152 14.479 25.0224C15.6667 26.3295 17.2775 27.1756 19.0277 27.4116C20.778 27.6476 22.5554 27.2584 24.0468 26.3126L26.3437 28.8438C24.3189 29.6185 22.1679 30.0106 20 30.0001ZM38.6406 20.5157C38.5781 20.6563 37 24.1563 33.4218 27.3594C33.1924 27.5599 32.8984 27.6708 32.5937 27.6719C32.4184 27.674 32.2449 27.6373 32.0855 27.5643C31.9261 27.4914 31.7848 27.3841 31.6718 27.2501C31.562 27.128 31.4773 26.9855 31.4226 26.8307C31.3679 26.6759 31.3442 26.5118 31.3529 26.3478C31.3616 26.1839 31.4026 26.0232 31.4734 25.8751C31.5442 25.7269 31.6435 25.5942 31.7656 25.4844C33.5119 23.9179 34.976 22.0627 36.0937 20.0001C35.1355 18.226 33.9191 16.6041 32.4843 15.1876C29.0156 11.7501 24.8125 10.0001 20 10.0001C18.9842 9.99597 17.97 10.0796 16.9687 10.2501C16.6419 10.3 16.3085 10.22 16.0398 10.0273C15.7712 9.83459 15.5886 9.5444 15.5312 9.21881C15.5044 9.05669 15.5098 8.89088 15.5471 8.73086C15.5845 8.57084 15.653 8.41976 15.7488 8.28624C15.8446 8.15273 15.9657 8.03941 16.1053 7.95277C16.245 7.86613 16.4003 7.80786 16.5625 7.78131C17.6985 7.59204 18.8483 7.49796 20 7.50006C25.4531 7.50006 30.4062 9.57818 34.3281 13.4844C37.2656 16.4376 38.5937 19.3751 38.6406 19.5001C38.7098 19.6604 38.7455 19.8332 38.7455 20.0079C38.7455 20.1825 38.7098 20.3553 38.6406 20.5157ZM20.9375 15.0938C20.7754 15.063 20.6209 15.0006 20.4829 14.9102C20.3449 14.8197 20.2261 14.7029 20.1333 14.5665C19.9457 14.2911 19.8753 13.9524 19.9375 13.6251C19.9996 13.2977 20.1893 13.0084 20.4647 12.8209C20.7402 12.6333 21.0788 12.5629 21.4062 12.6251C23.0001 12.9368 24.4509 13.7544 25.5431 14.9563C26.6353 16.1583 27.3106 17.6806 27.4687 19.2969C27.4992 19.6263 27.3979 19.9542 27.187 20.209C26.9761 20.4638 26.6729 20.6246 26.3437 20.6563H26.2187C25.9094 20.6575 25.611 20.5426 25.3824 20.3343C25.1538 20.1259 25.0117 19.8394 24.9843 19.5313C24.8765 18.4549 24.4246 17.4418 23.6956 16.6425C22.9666 15.8432 21.9994 15.3001 20.9375 15.0938Z" fill="#B5B5B5"/>
</svg>
