<svg width="13" height="7" viewBox="0 0 13 7" fill="none" xmlns="http://www.w3.org/2000/svg">
<path d="M0.8125 5.45312L6.0625 0.187499C6.125 0.124999 6.19271 0.0808329 6.26562 0.0549996C6.33854 0.0287496 6.41667 0.0156247 6.5 0.0156247C6.58333 0.0156247 6.66146 0.0287496 6.73437 0.0549996C6.80729 0.0808329 6.875 0.125 6.9375 0.1875L12.2031 5.45312C12.349 5.59896 12.4219 5.78125 12.4219 6C12.4219 6.21875 12.3437 6.40625 12.1875 6.5625C12.0312 6.71875 11.849 6.79687 11.6406 6.79687C11.4323 6.79687 11.25 6.71875 11.0937 6.5625L6.5 1.96875L1.90625 6.5625C1.76042 6.70833 1.58083 6.78125 1.3675 6.78125C1.15375 6.78125 0.96875 6.70312 0.8125 6.54687C0.65625 6.39062 0.578125 6.20833 0.578125 6C0.578125 5.79167 0.65625 5.60937 0.8125 5.45312Z" fill="#242424"/>
</svg>
