<svg width="18" height="14" viewBox="0 0 18 14" fill="none" xmlns="http://www.w3.org/2000/svg">
<path d="M16.9447 2.1951L13.4447 4.16732V1.4451C13.4447 1.15041 13.3276 0.867795 13.1192 0.659421C12.9109 0.451047 12.6282 0.333984 12.3336 0.333984H2.33355C1.74418 0.333984 1.17895 0.568111 0.762202 0.984858C0.345454 1.40161 0.111328 1.96684 0.111328 2.55621V11.4451C0.111328 12.0345 0.345454 12.5997 0.762202 13.0164C1.17895 13.4332 1.74418 13.6673 2.33355 13.6673H12.3336C12.6282 13.6673 12.9109 13.5503 13.1192 13.3419C13.3276 13.1335 13.4447 12.8509 13.4447 12.5562V9.82287L16.9447 11.7951C17.0345 11.8538 17.1381 11.8878 17.2452 11.8937C17.3523 11.8996 17.4591 11.8772 17.5548 11.8288C17.6505 11.7804 17.7318 11.7076 17.7905 11.6179C17.8492 11.5281 17.8832 11.4244 17.8891 11.3173V2.66732C17.8823 2.5607 17.8476 2.45773 17.7885 2.3687C17.7295 2.27966 17.6481 2.20766 17.5525 2.15988C17.457 2.1121 17.3506 2.09021 17.2439 2.09639C17.1372 2.10256 17.0341 2.1366 16.9447 2.1951Z" fill="white"/>
</svg>
