<svg width="40" height="40" viewBox="0 0 40 40" fill="none" xmlns="http://www.w3.org/2000/svg">
<path fillRule="evenodd" clipRule="evenodd" d="M6.37988 0.3125H33.6201C36.9709 0.3125 39.6875 3.02898 39.6875 6.37989V33.6201C39.6875 36.9709 36.9709 39.6875 33.6201 39.6875H6.37988C3.02898 39.6875 0.3125 36.9709 0.3125 33.6201V6.37989C0.3125 3.02898 3.02898 0.3125 6.37988 0.3125Z" fill="#4C75A3"/>
<path fillRule="evenodd" clipRule="evenodd" d="M19.6697 27.8762H21.2803C21.2803 27.8762 21.7667 27.8226 22.0154 27.555C22.244 27.3091 22.2367 26.8475 22.2367 26.8475C22.2367 26.8475 22.2052 24.6863 23.2081 24.3681C24.1971 24.0544 25.4668 26.4568 26.8125 27.3806C27.8302 28.0795 28.6036 27.9265 28.6036 27.9265L32.2022 27.8762C32.2022 27.8762 34.0846 27.7601 33.192 26.28C33.119 26.1591 32.672 25.1852 30.5163 23.1842C28.2596 21.0898 28.5621 21.4286 31.2802 17.8059C32.9355 15.5996 33.5972 14.2527 33.3904 13.6759C33.1935 13.1263 31.9758 13.2715 31.9758 13.2715L27.9241 13.2965C27.9241 13.2965 27.6235 13.2557 27.4009 13.3889C27.1831 13.5192 27.0433 13.8236 27.0433 13.8236C27.0433 13.8236 26.4018 15.5307 25.5468 16.9828C23.7426 20.0464 23.0211 20.2085 22.7262 20.018C22.04 19.5746 22.2115 18.237 22.2115 17.2865C22.2115 14.3175 22.6618 13.0795 21.3345 12.7591C20.8941 12.6528 20.5697 12.5825 19.4433 12.571C17.9975 12.5563 16.7741 12.5755 16.0812 12.9149C15.6202 13.1406 15.2646 13.6436 15.4813 13.6725C15.7492 13.7082 16.3555 13.8362 16.677 14.2736C17.0923 14.8387 17.0778 16.1072 17.0778 16.1072C17.0778 16.1072 17.3165 19.6022 16.5206 20.0362C15.9745 20.334 15.2253 19.7261 13.6167 16.9466C12.7927 15.5229 12.1703 13.949 12.1703 13.949C12.1703 13.949 12.0505 13.6549 11.8364 13.4975C11.5768 13.3068 11.2141 13.2464 11.2141 13.2464L7.36365 13.2715C7.36365 13.2715 6.78578 13.2876 6.57342 13.539C6.38449 13.7627 6.55833 14.2249 6.55833 14.2249C6.55833 14.2249 9.57257 21.2773 12.9859 24.8312C16.116 28.0901 19.6697 27.8762 19.6697 27.8762Z" fill="white"/>
</svg>
