<svg width="38" height="38" viewBox="0 0 38 38" fill="none" xmlns="http://www.w3.org/2000/svg">
<path d="M0.740234 19C0.740234 8.87446 8.94623 0.666626 19.0736 0.666626C29.1972 0.666626 37.4069 8.87446 37.4069 19C37.4069 29.1255 29.1972 37.3333 19.0736 37.3333C8.94623 37.3333 0.740234 29.1255 0.740234 19Z" fill="#FC3F1D"/>
<path d="M21.4198 11.0543H19.7258C16.6201 11.0543 14.9866 12.6273 14.9866 14.9465C14.9866 17.5682 16.1159 18.7965 18.4351 20.3713L20.3509 21.662L14.8454 29.8882H10.7314L15.6723 22.5292C12.8306 20.4923 11.2356 18.5142 11.2356 15.1683C11.2356 10.9737 14.1598 8.10999 19.7056 8.10999H25.2111V29.868H21.4198V11.0543Z" fill="white"/>
</svg>
